<svg xmlns="http://www.w3.org/2000/svg" xmlns:xlink="http://www.w3.org/1999/xlink" width="66" height="66" viewBox="0 0 66 66">
  <defs>
    <filter id="Elipse_3" x="0" y="0" width="66" height="66" filterUnits="userSpaceOnUse">
      <feOffset dy="5" input="SourceAlpha"/>
      <feGaussianBlur stdDeviation="3" result="blur"/>
      <feFlood flood-opacity="0.639"/>
      <feComposite operator="in" in2="blur"/>
      <feComposite in="SourceGraphic"/>
    </filter>
  </defs>
  <g id="Componente_10_1" data-name="Componente 10 – 1" transform="translate(9 4)">
    <g transform="matrix(1, 0, 0, 1, -9, -4)" filter="url(#Elipse_3)">
      <circle id="Elipse_3-2" data-name="Elipse 3" cx="24" cy="24" r="24" transform="translate(9 4)" fill="#fff"/>
    </g>
    <path id="list" d="M2.5,24.641A1.2,1.2,0,0,1,3.645,23.4h22.9a1.248,1.248,0,0,1,0,2.487H3.645A1.2,1.2,0,0,1,2.5,24.641Zm0-9.949a1.2,1.2,0,0,1,1.145-1.244h22.9a1.248,1.248,0,0,1,0,2.487H3.645A1.2,1.2,0,0,1,2.5,14.692Zm0-9.949A1.2,1.2,0,0,1,3.645,3.5h22.9a1.2,1.2,0,0,1,1.145,1.244,1.2,1.2,0,0,1-1.145,1.244H3.645A1.2,1.2,0,0,1,2.5,4.744Z" transform="translate(8.907 9.308)" fill-rule="evenodd"/>
  </g>
</svg>
